<?xml version="1.0" encoding="UTF-8"?>
<svg version="1.1" xmlns="http://www.w3.org/2000/svg" width="512" height="512">
<path d="M0 0 C3.42493618 2.90863983 6.73133892 5.91749382 10 9 C10.67675781 9.61230469 11.35351562 10.22460938 12.05078125 10.85546875 C34.28206515 31.75020252 46.09302351 63.83391375 47.27734375 93.8203125 C48.41258144 141.8864307 28.17373871 184.55540165 -0.5625 221.9375 C-22.22172923 250.76562905 -32.51879615 283.73497033 -28.6953125 319.88037109 C-25.61086883 340.83019576 -16.78989996 359.99386612 -3 376 C-2.4328125 376.72316406 -1.865625 377.44632812 -1.28125 378.19140625 C13.46259388 396.2655482 37.93505839 409.17286517 61 412 C88.94436497 413.5933068 111.66624994 407.78302586 133.04296875 389.2265625 C147.46183819 375.66709587 155.96857155 355.34417397 157.203125 335.78125 C157.50191822 314.86572489 151.14169246 296.76901324 136.65625 281.53515625 C128.31994293 273.61837113 118.31411906 266.67384454 107 264 C106.236875 263.81953125 105.47375 263.6390625 104.6875 263.453125 C90.74460089 261.10228736 76.65368137 263.84242304 65 272 C54.29864462 280.22177304 47.23959916 290.54258557 45 304 C44.13061222 316.60612288 46.0949447 327.8516182 54 338 C60.60753648 344.36579734 68.24890135 347.45744352 77.3125 348.3125 C81.92551376 347.92156663 85.25190078 346.72053044 89 344 C91.58721857 340.47197468 92.02330025 338.68735747 91.875 334.3125 C90.62428977 329.57766843 89.11771956 328.71343802 85.0625 326.125 C81.02588837 323.3240858 78.55964727 320.6789418 77 316 C76.4690523 309.73481719 77.1435885 305.10920055 81 300 C84.80199687 296.38197072 88.63616044 294.68801243 93.875 294.375 C102.46874388 294.85023008 110.24356056 299.79096582 116 306 C124.15793485 316.04507159 127.88114993 327.98200308 126.74609375 340.88671875 C124.85654131 353.09220613 118.9277215 364.45396786 109.33984375 372.3671875 C95.14927352 382.2697891 80.2083661 383.60013246 63.453125 381.5703125 C47.50530287 378.07903252 32.59923873 368.12666983 23 355 C10.854315 335.75820966 7.21650243 314.2471855 12.02734375 291.921875 C16.81459776 271.66391904 29.50822784 253.41083752 47 242 C69.00351283 229.2413091 92.25806187 224.7492164 117.21875 230.77734375 C130.72286331 234.59586123 142.20428334 241.11383211 153 250 C153.86367188 250.71027344 154.72734375 251.42054688 155.6171875 252.15234375 C170.27497685 264.77813426 180.98409962 280.62662605 187 299 C187.31759277 299.9585791 187.31759277 299.9585791 187.64160156 300.93652344 C193.93145631 320.96238429 193.45604423 345.08158045 187 365 C186.67854004 366.0223877 186.67854004 366.0223877 186.35058594 367.06542969 C176.64089097 397.21212453 155.21996066 420.41732877 127.39501953 434.9440918 C97.69898123 449.83237676 63.99494307 450.47049624 32.875 440.3125 C-12.47566213 424.90305073 -41.97382885 389.79518281 -63 348 C-64.35958779 345.22447126 -65.70265075 342.44112729 -67.04296875 339.65625 C-67.40719437 338.90054718 -67.77141998 338.14484436 -68.14668274 337.36624146 C-69.97624653 333.56414759 -71.79227066 329.75651804 -73.58520508 325.93701172 C-88.9282084 293.53750085 -111.77404127 266.65465535 -145.890625 253.4296875 C-149.5676432 252.14503888 -153.24412167 251.02983761 -157 250 C-158.09570312 249.68160156 -159.19140625 249.36320312 -160.3203125 249.03515625 C-187.52522568 242.31139069 -216.85580922 247.38080681 -240.953125 261.203125 C-248.32930353 265.65777365 -254.90029841 270.91065444 -261 277 C-261.76957031 277.75796875 -262.53914063 278.5159375 -263.33203125 279.296875 C-279.28186984 295.92600824 -287.43287131 319.29696992 -287.21484375 342.1171875 C-286.05429201 363.09152261 -277.8853962 382.08933148 -263 397 C-262.31292969 397.69867188 -261.62585938 398.39734375 -260.91796875 399.1171875 C-251.29469595 408.29411184 -239.83847398 413.87426424 -227 417 C-226.24589844 417.19078125 -225.49179688 417.3815625 -224.71484375 417.578125 C-204.37514776 420.73882596 -184.88930357 415.54774643 -168.05078125 403.97265625 C-158.60503502 396.20486801 -151.63171804 384.15943732 -150 372 C-148.66601923 356.73501552 -151.12692165 343.63425773 -160.90234375 331.30078125 C-168.23702209 323.25585473 -179.0312704 316.98614761 -190 316 C-201.07521577 315.76287321 -209.30856363 318.26335958 -217.4375 325.875 C-221.51621266 330.25858613 -223.56195912 333.99629108 -224.4375 340 C-223.82085501 344.22842282 -222.49299556 346.49633057 -220 350 C-217.28941855 351.66805012 -215.78103925 352.04110733 -212.625 351.875 C-209.79287255 351.05668925 -209.79287255 351.05668925 -206.875 348.9375 C-202.13635609 346.15006241 -197.32929032 345.86073995 -192 347 C-186.8193983 349.96885056 -182.83148681 354.27660373 -181 360 C-180.04263135 365.83124544 -180.83612946 370.29622031 -184.2578125 375.1484375 C-187.61712388 378.71864736 -191.62649323 380.87610337 -196 383 C-197.01513672 383.51240234 -197.01513672 383.51240234 -198.05078125 384.03515625 C-207.9685183 388.17557075 -221.37370717 387.23713094 -231.22265625 383.38671875 C-244.19146983 376.91143208 -251.89705243 367.38996573 -257 354 C-260.52676268 341.71510999 -258.79658816 327.21237856 -253 316 C-242.93335667 299.14785873 -228.6466002 288.57095957 -210 283 C-190.25206319 278.49481319 -170.25395902 283.11043472 -153 293 C-134.43111807 304.72136544 -122.41634409 322.63735691 -117.03125 343.80859375 C-112.06797398 366.2136099 -115.48527712 388.41927829 -126.875 408.3125 C-141.45090728 431.09912507 -163.45136648 445.05241629 -189.625 450.875 C-217.59734686 456.33133433 -245.66137187 451.84496957 -269.71484375 436.23828125 C-292.18677003 420.92744444 -307.66097463 400.42250547 -316.375 374.6875 C-316.61371826 373.98343018 -316.85243652 373.27936035 -317.09838867 372.55395508 C-320.59149337 361.66279574 -321.34036436 351.15209432 -321.3125 339.75 C-321.32861328 338.44675781 -321.34472656 337.14351563 -321.36132812 335.80078125 C-321.36742545 323.49637969 -319.33753015 311.78845588 -315.375 300.125 C-314.99758667 299.0110083 -314.99758667 299.0110083 -314.61254883 297.87451172 C-308.31832054 280.11867559 -297.83284066 265.64686414 -285 252 C-284.4740625 251.40960938 -283.948125 250.81921875 -283.40625 250.2109375 C-258.33242379 223.21819602 -218.83544468 213.04440716 -183.29736328 211.12011719 C-176.0752909 210.8570297 -168.8512739 210.82107406 -161.625 210.8125 C-160.86295258 210.81132172 -160.10090515 210.81014343 -159.31576538 210.80892944 C-151.70311517 210.81026329 -144.14245511 210.9378485 -136.546875 211.49609375 C-128.6916024 212.07312008 -120.86738956 212.22073004 -112.99414062 212.24023438 C-110.63375897 212.2499639 -108.27424279 212.2811485 -105.9140625 212.3125 C-92.36242711 212.40696685 -79.00302625 210.90304567 -66.125 206.4375 C-65.39579346 206.18774414 -64.66658691 205.93798828 -63.9152832 205.68066406 C-33.61268398 194.7811445 -10.38834058 173.52887715 3.46875 144.60546875 C14.39527893 118.87795293 15.85503835 89.84702748 5.6875 63.6875 C1.11132913 53.48877772 -4.66595893 44.42603109 -12 36 C-12.75990234 35.09701172 -12.75990234 35.09701172 -13.53515625 34.17578125 C-21.98143103 24.90864089 -34.20595937 17.87729086 -46 14 C-47.175625 13.60941406 -48.35125 13.21882813 -49.5625 12.81640625 C-69.84187433 6.65538623 -90.68900642 9.1175685 -109.33740234 18.80151367 C-127.45743951 28.65307521 -139.10055987 43.22419723 -144.97509766 62.96118164 C-148.95714534 77.95405421 -148.40306023 93.71890315 -141.3125 107.6875 C-133.55173816 120.90742519 -122.64528009 128.69395642 -108 133 C-95.61438974 136.09640257 -83.42621752 133.34548095 -72.5 127.0625 C-68.86310761 124.71025186 -65.83482143 122.30729167 -63 119 C-62.49726563 118.42636719 -61.99453125 117.85273438 -61.4765625 117.26171875 C-56.24259552 110.89159796 -53.31195563 103.50599656 -53.71875 95.1328125 C-54.77881185 87.09401013 -56.68198427 80.39932467 -63 75 C-66.69709168 72.66499473 -69.934362 72.75558737 -74.1328125 73.484375 C-77.28170955 74.3539449 -78.3109158 75.16233855 -80 78 C-80.35473001 80.72397611 -80.51105876 83.43406688 -80.67578125 86.17578125 C-81.32275785 91.81149312 -83.50702632 95.61366729 -87.625 99.4375 C-92.7298021 101.80083431 -97.76209339 102.94254131 -103.28125 101.3359375 C-108.62591461 98.88297576 -111.70736322 95.71453723 -114.25 90.375 C-116.7991722 78.90372512 -114.23631988 67.87804238 -108.234375 57.921875 C-101.96832209 48.16586857 -91.33352746 41.49534844 -80 39 C-65.10256381 37.68669246 -51.94254808 39.38082036 -40 49 C-38.87464844 49.90298828 -38.87464844 49.90298828 -37.7265625 50.82421875 C-26.44756132 60.92912595 -20.48677205 76.43441016 -19.65625 91.29296875 C-18.91751326 111.82882412 -23.71684346 127.31421784 -37.25 143.25 C-52.49775285 159.27569943 -72.80262016 168.23080458 -94.84765625 169 C-119.40303258 169.32362934 -140.99546681 159.13595259 -158.75 142.6875 C-174.8865651 125.58994839 -182.41583676 103.05393013 -182.14453125 79.8203125 C-181.21587512 55.27367222 -173.5252321 31.51467752 -157 13 C-156.32582031 12.18402344 -155.65164062 11.36804687 -154.95703125 10.52734375 C-116.86468071 -34.36473421 -44.31247085 -35.84296189 0 0 Z " fill="#FEDE5A" transform="translate(321,42)"/>
<path d="M0 0 C15.21779046 12.07000093 26.07789803 28.69197448 28.6015625 48.19921875 C30.69999461 70.59521233 24.7756464 91.4489844 10.9140625 109.19921875 C7.78538204 112.96578551 4.6089925 116.53773446 0.9765625 119.82421875 C0.3165625 119.82421875 -0.3434375 119.82421875 -1.0234375 119.82421875 C0.47832592 115.83190708 2.35685359 112.15401832 4.3515625 108.38671875 C13.6626426 90.2555064 15.40518933 70.46186504 9.9765625 50.82421875 C3.40081882 31.20236822 -9.94542842 17.44018103 -28.0234375 7.82421875 C-30.98323565 6.56445194 -33.89478558 5.56360719 -37.0234375 4.82421875 C-37.7865625 4.64375 -38.5496875 4.46328125 -39.3359375 4.27734375 C-51.24965792 2.26863508 -62.57052834 3.92287641 -73.26953125 9.5234375 C-74.17832031 9.95269531 -75.08710938 10.38195312 -76.0234375 10.82421875 C-76.6834375 10.49421875 -77.3434375 10.16421875 -78.0234375 9.82421875 C-57.44400148 -15.43005212 -26.27625356 -18.90939694 0 0 Z " fill="#FED15A" transform="translate(465.0234375,301.17578125)"/>
<path d="M0 0 C0.66 0.33 1.32 0.66 2 1 C1.59007813 1.79664063 1.18015625 2.59328125 0.7578125 3.4140625 C0.21898438 4.47367187 -0.31984375 5.53328125 -0.875 6.625 C-1.40867187 7.66914063 -1.94234375 8.71328125 -2.4921875 9.7890625 C-5.57622367 16.3566214 -6.33926453 21.64495778 -6.3125 28.8125 C-6.32861328 29.66392578 -6.34472656 30.51535156 -6.36132812 31.39257812 C-6.37057127 43.5288257 -1.15413573 54.26684535 6.984375 63.1484375 C15.3607508 70.84301527 25.22131744 74.53881523 36.4375 74.3125 C37.23220703 74.31572266 38.02691406 74.31894531 38.84570312 74.32226562 C44.44618971 74.27213922 49.58707263 73.41414448 55 72 C51.4248459 81.01560598 45.71855897 84.57970645 37 88.375 C25.79159789 92.11637406 12.53941848 91.26229755 2 86 C-9.73244187 79.07926532 -17.75283298 69.31096513 -21.54199219 56.11206055 C-24.4439989 42.72972575 -22.20672186 28.64768586 -15.203125 17.015625 C-10.82419046 10.67492778 -5.61007905 5.25944911 0 0 Z " fill="#FED15A" transform="translate(85,338)"/>
<path d="M0 0 C14.01338412 7.28967639 21.42155214 17.02214337 27.296875 31.41015625 C31.21872895 43.94363355 28.59412399 59.45580227 22.79296875 70.9453125 C18.61812475 78.04567062 13.51202978 85.62617578 5.41796875 88.2578125 C5.83949219 87.23300781 6.26101562 86.20820313 6.6953125 85.15234375 C7.24892905 83.79176069 7.80230161 82.43107834 8.35546875 81.0703125 C8.63326172 80.39677734 8.91105469 79.72324219 9.19726562 79.02929688 C14.37199835 66.24833051 13.86184928 52.51152116 9.03125 39.70703125 C3.11833386 27.06513065 -5.88193437 19.55283722 -18.58203125 14.2578125 C-27.68605049 10.96209227 -37.6126433 11.97665709 -46.58203125 15.2578125 C-44.14911592 8.19252807 -38.89126087 3.1740166 -32.26953125 -0.1796875 C-22.5008328 -4.59838883 -9.81068625 -4.24486576 0 0 Z " fill="#FFD15A" transform="translate(158.58203125,345.7421875)"/>
<path d="M0 0 C1 2 1 2 0.22265625 4.36328125 C-0.35162109 5.82314453 -0.35162109 5.82314453 -0.9375 7.3125 C-3.56545724 14.90437646 -4.67971501 23.25764299 -1.875 31 C0.8618736 35.37899776 3.46945071 38.20610218 8.390625 39.75 C10.58906895 40.2477609 12.7710082 40.66812789 15 41 C13.81723528 46.48372734 12.5316586 49.37467312 8 53 C2.45761533 56.19752962 -1.92680673 56.61804054 -8 55 C-12.83037154 52.53924468 -15.35390562 49.70416779 -18 45 C-20.95629308 35.62209016 -18.88513064 25.19341378 -14.828125 16.484375 C-10.95947291 9.27244333 -6.77268676 4.55853916 0 0 Z " fill="#FFD15A" transform="translate(225,88)"/>
</svg>
